HIERARCHY
ROOT pelvis
{
  OFFSET 0 100 0
  CHANNELS 6 Xposition Yposition Zposition Zrotation Xrotation Yrotation
  JOINT pelvis_right_femur
  {
    OFFSET -10.78128 -3.44521 -0.5502486
    CHANNELS 3 Zrotation Xrotation Yrotation
    JOINT right_femur_tibia
    {
      OFFSET -0.8047443 -44.0398 -0.1307829
      CHANNELS 3 Zrotation Xrotation Yrotation
      JOINT right_tibia_foot
      {
        OFFSET 3.006224 -47.83518 -5
        CHANNELS 3 Zrotation Xrotation Yrotation
        End Site
        {
          OFFSET 0 -5 15
        }
      }
    }
  }
  JOINT pelvis_left_femur
  {
    OFFSET 10.78128 -3.44521 -0.5502486
    CHANNELS 3 Zrotation Xrotation Yrotation
    JOINT left_femur_tibia
    {
      OFFSET 0.8047443 -44.0398 -0.1307829
      CHANNELS 3 Zrotation Xrotation Yrotation
      JOINT left_tibia_foot
      {
        OFFSET -4.370144 -48.10324 -4.275266
        CHANNELS 3 Zrotation Xrotation Yrotation
        End Site
        {
          OFFSET 0 -5 15
        }
      }
    }
  }
  JOINT pelvis_spine1
  {
    OFFSET 0 6.468898 -3.129235
    CHANNELS 3 Zrotation Xrotation Yrotation
    JOINT spine1
    {
      OFFSET 0 23.15396 4.99043
      CHANNELS 3 Zrotation Xrotation Yrotation
      JOINT spine2
      {
        OFFSET 0 20.79997 -5.064912
        CHANNELS 3 Zrotation Xrotation Yrotation
        JOINT neck
        {
          OFFSET 0 14.38658 9.616178
          CHANNELS 3 Zrotation Xrotation Yrotation
          End Site
          {
            OFFSET 0 20 0
          }
        }
      }
      JOINT right_manubrium
      {
        OFFSET -5.722621 16.35077 3.967754
        CHANNELS 3 Zrotation Xrotation Yrotation
        JOINT right_clavicle
        {
          OFFSET -13.16364 1.694482 -4.693211
          CHANNELS 3 Zrotation Xrotation Yrotation
          JOINT right_humerus
          {
            OFFSET -28.5034 -0.3100689 -2.792744
            CHANNELS 3 Zrotation Xrotation Yrotation
            JOINT right_radius
            {
              OFFSET -25.15693 0.02248979 -1.271978
              CHANNELS 3 Zrotation Xrotation Yrotation
              End Site
              {
                OFFSET -15 0 0
              }
            }
          }
        }
      }
      JOINT left_manubrium
      {
        OFFSET 5.722621 16.35077 3.967754
        CHANNELS 3 Zrotation Xrotation Yrotation
        JOINT left_clavicle
        {
          OFFSET 13.16364 1.694482 -4.693211
          CHANNELS 3 Zrotation Xrotation Yrotation
          JOINT left_humerus
          {
            OFFSET 29.39168 -1.063119 -2.237045
            CHANNELS 3 Zrotation Xrotation Yrotation
            JOINT left_radius
            {
              OFFSET 24.59957 -0.9528479 0.9047498
              CHANNELS 3 Zrotation Xrotation Yrotation
              End Site
              {
                OFFSET 15 -0 -0
              }
            }
          }
        }
      }
    }
  }
}
MOTION
Frames: 16
Frame Time: 0.0416666666667
0 103.5113 0 1.65194 -1.548192 -0.1186498 2.693744 -10.82598 9.435924 -6.284536e-07 35.23157 2.429073e-06 -5.988194 -18.10418 -4.425736 -7.379286 7.933051 -22.88731 -5.146707e-06 5.683287 -1.619719e-06 9.428807 -16.87193 28.92802 -4.943431 -4.217264 5.003166 2.533613 9.106254 -7.905747 1.397957 22.46292 6.26723 3.018545 -23.37111 8.613088 6.210064 -20.19332 11.31822 85.30914 36.69201 -18.14506 -1.087337e-07 -5.420293e-07 16.25991 -6.976204 8.431694 4.424499 5.205257 -19.29876 -1.110905 -95.01602 29.79488 23.51311 6.508864e-07 -1.087305e-06 -15.19684 3.591429 17.97849 9.473685
0.3090289 103.5461 1.461386 1.453972 -1.369757 -0.1415064 2.971641 -13.12595 9.303178 -4.99105e-07 36.75643 2.012136e-06 -5.855811 -17.265 -4.410275 -7.333476 9.206846 -22.87648 -4.193949e-06 5.59776 -1.378483e-06 8.866127 -17.44288 27.87579 -4.705906 -3.997529 4.800379 2.544893 9.166221 -8.031037 1.315637 22.31727 6.494737 3.023094 -23.49726 8.806267 6.262419 -20.0291 11.3776 85.80802 36.41597 -18.77679 -6.422309e-08 -4.801241e-07 16.2898 -6.947674 8.581418 4.399387 5.166777 -19.42912 -1.3209 -94.8251 29.82506 23.33111 6.715812e-07 -1.0266e-06 -15.84287 3.53452 17.65853 9.665061
0.6328656 103.5705 3.006038 1.18131 -1.008409 -0.03136791 3.373741 -15.86491 8.941425 -1.764645e-07 36.71502 1.167203e-06 -5.78812 -16.08902 -4.180282 -7.203012 10.36232 -22.7031 -2.91251e-06 5.540686 -1.184759e-06 8.007107 -18.16077 26.54777 -4.369708 -3.635992 4.560373 2.594115 9.22182 -8.127148 1.207886 22.11838 6.811997 3.110517 -23.75051 9.011748 6.271283 -19.8106 11.47728 86.27138 36.13052 -19.4501 -1.671166e-08 -4.093648e-07 16.16511 -7.082951 8.722847 4.507549 5.266811 -19.66973 -1.549258 -94.57189 29.74157 22.9893 6.340835e-07 -9.440919e-07 -16.77071 3.56919 17.22607 9.754847
0.9634189 103.5199 4.713123 0.90392 -0.4445149 0.1727137 3.803559 -18.56645 8.395012 -4.754572e-08 34.94744 3.355313e-07 -5.724796 -14.6533 -3.717182 -7.057437 11.31526 -22.40458 -1.962065e-06 5.539626 -1.146528e-06 7.030692 -18.93516 25.20278 -4.015359 -3.276568 4.351123 2.672025 9.243663 -8.177074 1.104015 21.88046 7.170212 3.294263 -24.12079 9.193333 6.224767 -19.54793 11.58318 86.63568 35.87948 -20.13066 9.211793e-09 -3.861605e-07 15.84939 -7.394522 8.805071 4.700006 5.531501 -20.00045 -1.729706 -94.26757 29.53608 22.48407 4.43509e-07 -7.295415e-07 -17.95901 3.716631 16.76913 9.682005
1.287737 103.337 6.648152 0.6510015 0.2478942 0.4334129 4.232555 -21.29205 7.739043 -2.212789e-07 31.80918 -3.501235e-07 -5.597265 -13.05441 -3.128506 -6.926505 12.25202 -22.02227 -1.469142e-06 5.669052 -1.300574e-06 6.003081 -19.79722 23.91954 -3.672751 -2.949127 4.174373 2.768387 9.228451 -8.19905 1.020042 21.62912 7.548213 3.552568 -24.55322 9.359301 6.125656 -19.2152 11.68313 86.9839 35.61418 -20.90357 1.256234e-08 -4.214133e-07 15.33783 -7.851165 8.838274 4.90593 5.946441 -20.41806 -1.872985 -93.87653 29.25435 21.7205 1.210876e-07 -3.825201e-07 -19.46013 3.942031 16.30549 9.473483
1.594526 102.9784 8.8273 0.4150044 0.9996739 0.7053022 4.632215 -23.69352 7.039874 -5.165361e-07 27.58595 -9.91188e-07 -5.505882 -11.47066 -2.459431 -6.788616 12.94357 -21.58411 -1.233987e-06 5.929497 -1.536637e-06 4.98722 -20.58021 22.77431 -3.353533 -2.645507 4.031612 2.881496 9.181359 -8.180867 0.9546954 21.36635 7.903881 3.85232 -25.00251 9.482895 6.000899 -18.8551 11.7697 87.14162 35.41562 -21.57553 -2.444185e-09 -4.864183e-07 14.6948 -8.350696 8.815649 5.127853 6.442324 -20.84376 -1.954582 -93.41639 28.92189 20.85552 -2.526521e-07 1.333996e-08 -20.97255 4.219282 15.86723 9.162969
1.880717 102.4703 11.34791 0.1395305 1.801754 0.9803746 5.007513 -25.7959 6.331722 -9.062755e-07 23.21062 -1.432592e-06 -5.479237 -9.902531 -1.821396 -6.600145 13.67436 -21.05891 -1.184501e-06 6.510134 -1.43261e-06 3.796192 -21.13004 21.46482 -3.019499 -2.411886 3.864415 3.016841 9.083794 -8.183069 0.8996487 21.09365 8.211648 4.124408 -25.438 9.579855 5.864458 -18.44914 11.79829 87.33043 35.28544 -22.24007 -3.661455e-08 -5.27288e-07 13.95173 -8.830421 8.840536 5.369929 6.901522 -21.22553 -1.965786 -92.95459 28.59254 20.00375 -6.533322e-07 4.862271e-07 -22.37838 4.464517 15.40706 8.895337
2.139109 101.8428 14.22279 -0.1516311 2.460019 1.255957 5.320515 -27.43295 5.691795 -1.122941e-06 19.33139 -1.793394e-06 -5.583309 -8.68094 -1.359588 -6.353585 14.34223 -20.48591 -9.823305e-07 7.472379 -9.394314e-07 2.546909 -21.36081 20.11421 -2.70021 -2.199998 3.656345 3.157332 8.956783 -8.214722 0.8524242 20.88943 8.427707 4.306262 -25.75828 9.637698 5.735375 -18.02633 11.77127 87.57719 35.24374 -22.81141 -6.525999e-08 -4.981718e-07 13.1652 -9.204695 8.923665 5.606678 7.234582 -21.52669 -1.937553 -92.50347 28.35265 19.18101 -9.352841e-07 8.435232e-07 -23.48162 4.644976 14.97723 8.709298
2.382803 101.2196 17.56157 -0.4992351 2.980899 1.556592 5.593124 -28.38219 5.168098 -1.249234e-06 16.90852 -1.78653e-06 -5.810119 -7.694401 -1.100384 -6.045212 15.01752 -19.82685 -8.277378e-07 9.18318 2.589593e-07 1.105161 -21.0293 18.48726 -2.353161 -2.088002 3.407888 3.289751 8.808897 -8.29748 0.807111 20.72642 8.527994 4.351639 -25.95574 9.65544 5.624423 -17.6097 11.6609 87.9824 35.25437 -23.30326 -9.578084e-08 -3.878848e-07 12.4265 -9.450147 9.139516 5.846681 7.317424 -21.66911 -1.863725 -92.16383 28.20107 18.64657 -1.147286e-06 1.193373e-06 -24.10035 4.681242 14.53154 8.740823
2.628255 100.7465 21.4005 -0.8820029 3.268639 1.898567 5.813268 -28.42735 4.7994 -1.084819e-06 16.28221 -1.517932e-06 -6.24057 -6.952618 -1.04457 -5.690183 15.47802 -19.09704 -5.597692e-07 11.82561 2.140582e-06 -0.3607293 -20.01196 16.7262 -2.001229 -2.046146 3.131964 3.403027 8.69488 -8.419266 0.7496324 20.60684 8.498394 4.255892 -25.99189 9.597474 5.57322 -17.2269 11.494 88.37889 35.39368 -23.58902 -1.147951e-07 -1.923743e-07 11.73638 -9.517918 9.465726 6.082956 7.08932 -21.63172 -1.771788 -91.85612 28.13415 18.46595 -1.222758e-06 1.419211e-06 -24.05044 4.595784 14.09493 8.960159
2.889868 100.5573 25.73572 -1.29507 3.269378 2.280319 6.071005 -27.66463 4.638224 -6.413014e-07 17.13034 -1.117688e-06 -6.825985 -6.48191 -1.189134 -5.2784 15.58521 -18.28517 -1.744662e-07 15.67961 4.527995e-06 -1.84181 -18.34339 14.91573 -1.608136 -2.001349 2.859005 3.490348 8.650918 -8.548179 0.6876591 20.53303 8.355347 4.039528 -25.87056 9.475288 5.570936 -16.89263 11.31627 88.74512 35.56331 -23.67871 -1.157824e-07 6.372898e-08 11.13874 -9.43329 9.894175 6.296072 6.58105 -21.43302 -1.700063 -91.63109 28.12577 18.65132 -1.162491e-06 1.509392e-06 -23.39381 4.37465 13.64297 9.376703
3.178356 100.7468 30.56016 -1.700909 3.03275 2.662041 6.427376 -25.95266 4.633397 -1.912746e-07 18.39094 -5.640413e-07 -7.483565 -6.40964 -1.411621 -4.817801 14.89061 -17.28281 -1.194896e-07 21.11627 7.107666e-06 -3.316705 -16.06296 13.17708 -1.15503 -1.924147 2.70139 3.539462 8.696411 -8.625723 0.6242096 20.51703 8.123627 3.75828 -25.63954 9.279423 5.580591 -16.64655 11.18443 89.05166 35.71375 -23.58463 -9.353725e-08 3.167349e-07 10.67452 -9.335552 10.39181 6.497671 5.886591 -21.14226 -1.644275 -91.60097 28.1101 19.21758 -1.067051e-06 1.544456e-06 -22.38995 4.042871 13.16046 9.936104
3.467222 101.3361 35.64332 -1.98232 2.42769 2.963062 6.857467 -23.57833 4.788917 4.085464e-07 19.33754 -2.279692e-07 -8.192665 -6.989117 -1.719137 -4.354168 13.13248 -16.14539 -1.534548e-07 28.14777 9.282287e-06 -4.480975 -13.49884 11.90099 -0.7163037 -1.6699 2.707731 3.533738 8.889541 -8.611248 0.5532622 20.61904 7.83863 3.468942 -25.2478 8.996797 5.629759 -16.45909 11.18172 89.08721 35.88851 -23.29106 -1.046779e-08 5.229774e-07 10.24349 -9.21213 10.83487 6.591998 5.11065 -20.87615 -1.676053 -91.52452 28.11621 19.79036 -8.17866e-07 1.290615e-06 -21.32753 3.708449 12.72021 10.44211
3.749378 102.2806 40.83142 -1.988406 1.567798 3.118913 7.078094 -20.02903 4.840771 6.874941e-07 19.68192 1.838923e-07 -8.678006 -8.057806 -1.895737 -4.005876 9.860362 -14.82843 -8.939863e-07 35.73866 1.058669e-05 -5.234344 -11.01375 11.34077 -0.4491058 -1.334313 3.02186 3.398892 9.192844 -8.414345 0.481833 20.92143 7.572035 3.266761 -24.74972 8.64849 5.672017 -16.42076 11.3201 88.9336 36.09521 -22.70782 1.154808e-07 5.953451e-07 10.00863 -9.557901 11.18431 6.79311 4.411839 -20.66454 -1.745482 -91.67742 28.10136 20.39685 -5.921578e-07 9.295495e-07 -20.44024 3.340997 12.30658 10.90336
4.010019 103.4508 45.91147 -1.698569 0.5516333 3.102849 7.012616 -15.72076 4.710991 7.151866e-07 19.22133 4.587044e-07 -8.868557 -9.416646 -1.848936 -3.762911 5.262462 -13.4453 -1.735727e-06 42.56682 1.05729e-05 -5.485969 -9.005724 11.52689 -0.4124067 -0.9082855 3.611761 3.131589 9.583344 -8.03153 0.3994855 21.3616 7.376406 3.192658 -24.17123 8.253005 5.694724 -16.54978 11.5981 88.38802 36.32655 -21.75472 2.822112e-07 5.288544e-07 10.01971 -10.43684 11.37799 7.152854 3.893659 -20.53909 -1.874395 -91.861 28.02036 20.88299 -3.912356e-07 4.291747e-07 -19.85032 2.999522 11.92823 11.2203
4.2408 104.6802 50.78368 -1.206885 -0.4343053 2.926301 6.679862 -11.13823 4.396811 5.162851e-07 17.96268 6.420474e-07 -8.740663 -10.84714 -1.609885 -3.557224 0.1254999 -12.12123 -2.312375e-06 47.40426 9.340417e-06 -5.362592 -7.644921 12.24754 -0.5918619 -0.4989972 4.342838 2.783117 9.943055 -7.536079 0.3236997 21.84856 7.24305 3.215529 -23.5648 7.852399 5.651893 -16.80985 11.91143 87.53398 36.52252 -20.50739 4.526543e-07 3.782428e-07 10.26478 -11.75241 11.44074 7.686587 3.605585 -20.46465 -2.005869 -91.99892 27.87178 21.17568 -2.662065e-07 -9.604712e-08 -19.52781 2.686306 11.59366 11.40306
